<?xml version="1.0" encoding="UTF-8"?>
<svg id="Layer_1" xmlns="http://www.w3.org/2000/svg" version="1.1" viewBox="0 0 24 24">
  <!-- Generator: Adobe Illustrator 30.0.0, SVG Export Plug-In . SVG Version: 2.1.1 Build 123)  -->
  <defs>
    <style>
      .st0 {
        fill: #1890ff;
      }
    </style>
  </defs>
  <path class="st0" d="M20.34,3.75h-2.16v-.94c0-.1-.08-.19-.19-.19H6c-.1,0-.19.08-.19.19v.94h-2.16c-.27,0-.54.11-.73.3-.19.19-.3.46-.3.73v3.47c0,1.91,1.41,3.51,3.24,3.8.36,2.72,2.55,4.87,5.29,5.17v2.47h-4.59c-.41,0-.75.34-.75.75v.76c0,.1.08.19.19.19h12c.1,0,.19-.08.19-.19v-.76c0-.41-.34-.75-.75-.75h-4.59v-2.47c2.74-.3,4.93-2.44,5.29-5.17,1.83-.29,3.24-1.88,3.24-3.8v-3.47c0-.27-.11-.54-.3-.73-.19-.19-.46-.3-.73-.3ZM5.81,10.3c-.44-.14-.82-.41-1.08-.78s-.41-.81-.42-1.27v-2.81h1.5v4.87ZM16.5,11.25c0,1.15-.45,2.24-1.26,3.05-.82.82-1.9,1.26-3.05,1.26h-.38c-1.15,0-2.24-.45-3.05-1.26-.82-.82-1.26-1.9-1.26-3.05v-6.94h9v6.94ZM19.69,8.25c0,.96-.63,1.78-1.5,2.05v-4.87h1.5v2.81Z"/>
</svg>