<?xml version="1.0" encoding="UTF-8"?>
<svg id="Layer_1" xmlns="http://www.w3.org/2000/svg" version="1.1" viewBox="0 0 24 24">
  <!-- Generator: Adobe Illustrator 30.0.0, SVG Export Plug-In . SVG Version: 2.1.1 Build 123)  -->
  <defs>
    <style>
      .st0 {
        fill: none;
        stroke: #5d5efc;
        stroke-linecap: round;
        stroke-linejoin: round;
        stroke-width: 2px;
      }
    </style>
  </defs>
  <path class="st0" d="M3,5c0-1.1.9-2,2-2h3c1.1,0,2,.9,2,2v3c0,1.1-.9,2-2,2h-3c-1.1,0-2-.9-2-2v-3Z"/>
  <path class="st0" d="M14,5c0-1.1.9-2,2-2h3c1.1,0,2,.9,2,2v3c0,1.1-.9,2-2,2h-3c-1.1,0-2-.9-2-2v-3Z"/>
  <path class="st0" d="M3,16c0-1.1.9-2,2-2h3c1.1,0,2,.9,2,2v3c0,1.1-.9,2-2,2h-3c-1.1,0-2-.9-2-2v-3Z"/>
  <path class="st0" d="M14,16c0-1.1.9-2,2-2h3c1.1,0,2,.9,2,2v3c0,1.1-.9,2-2,2h-3c-1.1,0-2-.9-2-2v-3Z"/>
</svg>