<svg width="24" height="24" viewBox="0 0 24 24" fill="none" xmlns="http://www.w3.org/2000/svg">
<path d="M21.3732 6.65383V6.66555L19.5826 20.2734C19.5592 20.4609 19.3975 20.6015 19.21 20.6015H4.79355C4.60371 20.6015 4.44434 20.4585 4.41855 20.2734L2.62793 6.66555V6.65149V6.68899L4.41855 20.2968C4.44434 20.482 4.60371 20.6249 4.79355 20.6249H19.21C19.3975 20.6249 19.5592 20.4843 19.5826 20.2968L21.3732 6.68899C21.3756 6.67727 21.3756 6.66555 21.3732 6.65383Z" fill="#E6F7FF"/>
<path d="M18.1312 18.9985L19.3945 9.40315L16.118 11.4211L12 5.92737L7.88203 11.4211L4.60547 9.40315L5.86641 18.9985H18.1312ZM9.36094 14.5688C9.36094 13.1133 10.5445 11.9297 12 11.9297C13.4555 11.9297 14.6391 13.1133 14.6391 14.5688V14.5922C14.6391 16.0477 13.4555 17.2313 12 17.2313C10.5445 17.2313 9.36094 16.0477 9.36094 14.5922V14.5688Z" fill="#E6F7FF"/>
<path d="M11.9998 17.2078C13.4506 17.2078 14.6319 16.0313 14.6389 14.5805V14.5688C14.6389 13.1133 13.4553 11.9297 11.9998 11.9297C10.5444 11.9297 9.36077 13.1133 9.36077 14.5688V14.5805C9.36781 16.0313 10.5491 17.2078 11.9998 17.2078ZM11.9998 13.4367C12.6233 13.4367 13.1295 13.943 13.1295 14.5688C13.1295 15.1922 12.6233 15.7008 11.9998 15.7008C11.3764 15.7008 10.8702 15.1945 10.8702 14.5688C10.8702 13.9453 11.3764 13.4367 11.9998 13.4367Z" fill="#1890FF"/>
<path d="M4.41796 20.2734C4.44374 20.4585 4.60311 20.6015 4.79296 20.6015H19.2094C19.3969 20.6015 19.5586 20.4609 19.582 20.2734L21.3726 6.66557V6.65385C21.3797 6.50385 21.2156 6.40072 21.0844 6.48041L16.5234 9.29057L12.15 3.45697C12.1324 3.43349 12.1096 3.41444 12.0833 3.40131C12.0571 3.38818 12.0282 3.38135 11.9988 3.38135C11.9695 3.38135 11.9405 3.38818 11.9143 3.40131C11.8881 3.41444 11.8652 3.43349 11.8476 3.45697L7.47655 9.29057L2.91327 6.48041C2.78436 6.40072 2.61796 6.5015 2.62733 6.6515V6.66557L4.41796 20.2734ZM7.88202 11.421L12 5.92728L16.118 11.421L19.3945 9.40307L18.1312 18.9984H5.86639L4.60546 9.40307L7.88202 11.421Z" fill="#1890FF"/>
</svg>
