<?xml version="1.0" encoding="UTF-8"?>
<svg id="Layer_1" xmlns="http://www.w3.org/2000/svg" version="1.1" viewBox="0 0 24 24">
  <!-- Generator: Adobe Illustrator 30.0.0, SVG Export Plug-In . SVG Version: 2.1.1 Build 123)  -->
  <defs>
    <style>
      .st0 {
        fill: #e6f7ff;
      }

      .st1 {
        fill: #1890ff;
      }
    </style>
  </defs>
  <path class="st0" d="M21.37,6.65h0s-1.79,13.62-1.79,13.62c-.02.19-.19.33-.37.33H4.79c-.19,0-.35-.14-.38-.33l-1.79-13.61h0s0,.02,0,.02l1.79,13.61c.03.19.19.33.38.33h14.42c.19,0,.35-.14.37-.33l1.79-13.61s0-.02,0-.04Z"/>
  <path class="st1" d="M12,17.21c1.45,0,2.63-1.18,2.64-2.63h0c0-1.47-1.18-2.65-2.64-2.65s-2.64,1.18-2.64,2.64h0c0,1.46,1.19,2.64,2.64,2.64ZM12,13.44c.62,0,1.13.51,1.13,1.13s-.51,1.13-1.13,1.13-1.13-.51-1.13-1.13.51-1.13,1.13-1.13Z"/>
  <path class="st1" d="M4.42,20.27c.03.19.19.33.38.33h14.42c.19,0,.35-.14.37-.33l1.79-13.61h0c0-.16-.16-.26-.29-.19l-4.56,2.81-4.37-5.83s-.04-.04-.07-.06c-.03-.01-.06-.02-.08-.02s-.06,0-.08.02-.05.03-.07.06l-4.37,5.83-4.56-2.81c-.13-.08-.3.02-.29.17h0s1.79,13.62,1.79,13.62ZM7.88,11.42l4.12-5.49,4.12,5.49,3.28-2.02-1.26,9.6H5.87l-1.26-9.6,3.28,2.02Z"/>
</svg>