<?xml version="1.0" encoding="UTF-8"?>
<svg id="Layer_1" xmlns="http://www.w3.org/2000/svg" version="1.1" viewBox="0 0 24 24">
  <!-- Generator: Adobe Illustrator 30.0.0, SVG Export Plug-In . SVG Version: 2.1.1 Build 123)  -->
  <defs>
    <style>
      .st0 {
        fill-opacity: .85;
      }
    </style>
  </defs>
  <path class="st0" d="M19.51,17.45c-.41-.97-1-1.85-1.75-2.59-.74-.74-1.62-1.34-2.59-1.75,0,0-.02,0-.03-.01,1.35-.98,2.23-2.56,2.23-4.36,0-2.97-2.41-5.38-5.38-5.38s-5.38,2.41-5.38,5.38c0,1.79.88,3.38,2.23,4.36,0,0-.02,0-.03.01-.97.41-1.84,1-2.59,1.75-.74.74-1.34,1.62-1.75,2.59-.4.95-.62,1.96-.64,2.99,0,.02,0,.05.01.07,0,.02.02.04.04.06.02.02.04.03.06.04.02,0,.04.01.07.01h1.3c.1,0,.17-.08.17-.17.04-1.67.72-3.24,1.9-4.43,1.23-1.23,2.86-1.91,4.6-1.91s3.37.68,4.6,1.91c1.19,1.19,1.86,2.76,1.9,4.43,0,.1.08.17.17.17h1.3s.05,0,.07-.01c.02,0,.04-.02.06-.04.02-.02.03-.04.04-.06,0-.02.01-.04.01-.07-.02-1.04-.24-2.04-.64-3ZM12,12.48c-1,0-1.93-.39-2.64-1.09-.7-.7-1.09-1.64-1.09-2.64s.39-1.93,1.09-2.64c.7-.7,1.64-1.09,2.64-1.09s1.93.39,2.64,1.09c.7.7,1.09,1.64,1.09,2.64s-.39,1.93-1.09,2.64-1.64,1.09-2.64,1.09Z"/>
</svg>